# xmcd CD database file
#
# Track frame offsets:
#	150
#	23786
#	46168
#	68352
#	93481
#	117919
#	140899
#	161681
#	180560
#	200313
#	219588
#	243109
#	267529
#	292082
#	311508
#	329339
#
# Disc length: 4711 seconds
#
# Revision: 1
# Processed by: cddbd v1.5.2PL0 Copyright (c) Steve Scherf et al.
# Submitted via: CDex 1.77
#
DISCID=ea126510
DTITLE=VARIOS ARTISTAS - ENAMORATE CON ESTA SALSA
DYEAR=1900
DGENRE=Salsa
TTITLE0=EL GRAN COMBO DE PUERTO RICO - NO DIGAS QUE NO
TTITLE1=FRANKIE RUIZ - NUNCA TE QUEDAS
TTITLE2=GILBERTO SANTA ROSA - SOMBRA LOCA
TTITLE3=ALEX BUENO - JARDIN PROHIBIDO
TTITLE4=ATRATO RIVER - COLEGIALA
TTITLE5=ATRATO RIVER - SECRETARIA AL DESPERTAR
TTITLE6=EDDIE SANTIAGO - DE PROFESION TU AMANTE
TTITLE7=ADOLECENT'S ORQUESTA - ANHELO
TTITLE8=GUAYACAN ORQUESTA - MAS QUE SEXO
TTITLE9=GRUPO NICHE - ENAMORADA
TTITLE10=LA SUPREMA CORTE - PORQUR FALLASTE
TTITLE11=TAMBAFUEGO - CARAMELO
TTITLE12=GUAYACAN ORQUESTA - NO ME PREGUNTES MAS POR ELLA
TTITLE13=FRANKIE RUIZ - QUE SE MUERAN DE ENVIDIA
TTITLE14=GRUPO GALE - AMOR SECRETO
TTITLE15=TAMBAFUEGO - TODO ACABO
EXTD=
EXTT0=
EXTT1=
EXTT2=
EXTT3=
EXTT4=
EXTT5=
EXTT6=
EXTT7=
EXTT8=
EXTT9=
EXTT10=
EXTT11=
EXTT12=
EXTT13=
EXTT14=
EXTT15=
PLAYORDER=
